<svg id="Слой_1" data-name="Слой 1" xmlns="http://www.w3.org/2000/svg" viewBox="0 0 5004 5004"><defs><style>.cls-1{fill:#666;}.cls-2{fill:none;}</style></defs><rect class="cls-1" x="2557.39" y="2586.45" width="194.75" height="5.72"/><rect class="cls-1" x="2281.7" y="2453.95" width="5.2" height="56.11"/><rect class="cls-1" x="2673.82" y="2540.52" width="111.08" height="5.2"/><rect class="cls-1" x="2282.03" y="2449" width="506.18" height="5.12"/><rect class="cls-1" x="2783.34" y="2454.12" width="5.2" height="90.99"/><rect class="cls-1" x="2955.45" y="2850.59" width="5.2" height="148.97"/><path class="cls-1" d="M2960.91,2850.59h-5.59c-.62-128.65-102.34-258.21-203.18-258.55v-5.84C2855.88,2586.63,2960.5,2719.15,2960.91,2850.59Z"/><rect class="cls-1" x="3004.33" y="2834.22" width="5.2" height="165.35"/><rect class="cls-1" x="3000.95" y="2829.02" width="453.93" height="5.2"/><rect class="cls-1" x="2955.45" y="2999.04" width="649.96" height="5.2"/><line class="cls-2" x1="2770.86" y1="2540.96" x2="2770.86" y2="2545.64"/><path class="cls-1" d="M3007.18,2829.27h-6c-.49-141.25-116-283.63-230.34-283.63V2541C2887.89,2541,3006.12,2685.52,3007.18,2829.27Z"/><path class="cls-1" d="M3100.78,2828.76h-4.68c0-183.81-154.91-369.49-308.34-369.7v-4.94h.13C2943.54,2454.12,3100.78,2642.39,3100.78,2828.76Z"/><rect class="cls-1" x="3178.91" y="2833.44" width="5.2" height="166.13"/><rect class="cls-1" x="2960.39" y="2920.4" width="44.2" height="1.3"/><rect class="cls-1" x="3009.53" y="2931.84" width="169.51" height="1.3"/><rect class="cls-1" x="3097.27" y="2932.62" width="1.3" height="66.82"/><rect class="cls-1" x="3053.72" y="2834.22" width="5.2" height="68.12"/><rect class="cls-1" x="3009.27" y="2897.13" width="44.72" height="5.2"/><rect class="cls-1" x="2637.62" y="2545.38" width="1.3" height="41.08" transform="translate(137.91 -134.56) rotate(3)"/><rect class="cls-1" x="2900.72" y="2495.6" width="1.2" height="91.93" transform="translate(2048.01 -1219.96) rotate(36)"/><rect class="cls-1" x="2943.36" y="2534.46" width="1.3" height="90.99" transform="translate(2618.46 -1320.99) rotate(44)"/><rect class="cls-1" x="2978.07" y="2578.13" width="5.2" height="90.99" transform="translate(3213.05 -1340.44) rotate(52)"/><rect class="cls-1" x="3012" y="2630.65" width="1.3" height="90.99" transform="translate(4029.41 -1223.08) rotate(63)"/><rect class="cls-1" x="3057.62" y="2901.16" width="122.19" height="1.3"/><rect class="cls-1" x="3183.85" y="2900.9" width="284.68" height="1.3"/><rect class="cls-1" x="2991.33" y="2733.21" width="90.99" height="1.3" transform="translate(-870.86 1539.58) rotate(-25)"/><rect class="cls-1" x="3002.77" y="2784.95" width="90.99" height="1.3" transform="translate(-475.51 632.82) rotate(-11)"/><rect class="cls-1" x="3183.98" y="2931.51" width="329.14" height="1.3"/><rect class="cls-1" x="3263.4" y="2931.97" width="1.3" height="70.2"/><rect class="cls-1" x="3389.23" y="2931.71" width="1.3" height="70.2"/><rect class="cls-1" x="3430.05" y="2931.97" width="1.3" height="70.2"/><rect class="cls-1" x="3389.36" y="2954.46" width="41.6" height="1.3"/><rect class="cls-1" x="3410.03" y="2932.88" width="1.3" height="21.58"/><rect class="cls-1" x="3411.07" y="2941.46" width="18.98" height="1.3"/><rect class="cls-1" x="3468.01" y="2832.4" width="1.3" height="67.6" transform="translate(-145.25 185.47) rotate(-3)"/><rect class="cls-1" x="3453.58" y="2823.82" width="194.46" height="5.2" transform="translate(-143.06 189.72) rotate(-3)"/><rect class="cls-1" x="3454.36" y="2760.38" width="5.2" height="68.64" transform="translate(-186.53 247.96) rotate(-4)"/><polygon class="cls-1" points="3643.33 2748.51 3453.84 2760.47 3454.13 2765.49 3643.63 2753.53 3643.33 2748.51"/><rect class="cls-1" x="3626.73" y="2162.29" width="5.2" height="788.53" transform="translate(-149.3 226.33) rotate(-3.5)"/><rect class="cls-1" x="3222.84" y="2833.83" width="1.3" height="67.86"/><rect class="cls-1" x="3263.66" y="2833.44" width="1.3" height="68.64"/><rect class="cls-1" x="3304.87" y="2833.7" width="1.3" height="67.34"/><rect class="cls-1" x="3626.21" y="2937.69" width="5.2" height="74.88" transform="translate(3003.91 -1675.58) rotate(43)"/><rect class="cls-1" x="3471.65" y="2931.97" width="1.3" height="67.6"/><rect class="cls-1" x="3507.65" y="2931.84" width="5.2" height="67.6"/><rect class="cls-1" x="3544.18" y="2852.28" width="1.3" height="93.85" transform="translate(3008.87 -1648.76) rotate(44)"/><rect class="cls-1" x="3575.25" y="2827.59" width="5.2" height="38.22" transform="translate(-144.08 191.15) rotate(-3)"/><rect class="cls-1" x="3580.71" y="2862.03" width="65" height="1.3" transform="matrix(1, -0.05, 0.05, 1, -144.87, 193.02)"/><rect class="cls-1" x="3452.02" y="2221.7" width="5.2" height="538.16" transform="translate(-145.62 215.55) rotate(-3.5)"/><polygon class="cls-1" points="3606.61 2212.83 3439.55 2222.25 3439.9 2227.44 3606.95 2218.02 3606.61 2212.83"/><polygon class="cls-1" points="3436.78 2226.68 3431.59 2226.99 3428.32 2174.01 3433.51 2173.7 3436.78 2226.68"/><rect class="cls-1" x="3432.78" y="2168.4" width="171.59" height="5.2" transform="translate(-125.97 218.85) rotate(-3.5)"/><rect class="cls-1" x="3538.72" y="2759.99" width="1.3" height="65" transform="translate(-163.88 221.28) rotate(-3.5)"/><rect class="cls-1" x="3575.64" y="2757.65" width="1.3" height="65" transform="translate(-163.66 223.53) rotate(-3.5)"/><rect class="cls-1" x="3524.16" y="2223" width="1.3" height="532.96" transform="translate(-145.4 219.83) rotate(-3.5)"/><rect class="cls-1" x="3555.36" y="2221.32" width="1.3" height="532.96" transform="translate(-145.24 221.73) rotate(-3.5)"/><rect class="cls-1" x="3443.31" y="2264.72" width="66.82" height="1.3" transform="translate(-131.81 216.47) rotate(-3.5)"/><rect class="cls-1" x="3542.23" y="2259.26" width="67.6" height="1.3" transform="translate(-131.3 222.53) rotate(-3.5)"/><rect class="cls-1" x="3544.83" y="2297.22" width="67.6" height="1.3" transform="translate(-133.61 222.76) rotate(-3.5)"/><rect class="cls-1" x="3547.6" y="2339.34" width="67.6" height="1.3" transform="translate(-136.18 223.01) rotate(-3.5)"/><rect class="cls-1" x="3548.99" y="2379.9" width="67.6" height="1.3" transform="translate(-138.65 223.17) rotate(-3.5)"/><rect class="cls-1" x="3551.33" y="2417.85" width="67.6" height="1.3" transform="translate(-121.66 190.95) rotate(-3)"/><rect class="cls-1" x="3554.71" y="2461.1" width="67.6" height="1.3" transform="translate(-143.6 223.67) rotate(-3.5)"/><rect class="cls-1" x="3557.31" y="2503.13" width="67.6" height="1.3" transform="translate(-146.16 223.91) rotate(-3.5)"/><rect class="cls-1" x="3450.72" y="2387.18" width="67.6" height="1.3" transform="translate(-139.28 217.18) rotate(-3.5)"/><rect class="cls-1" x="3458.52" y="2510.41" width="67.6" height="1.3" transform="translate(-146.79 217.89) rotate(-3.5)"/><rect class="cls-1" x="3468.34" y="2673.3" width="67.6" height="1.3" transform="translate(-156.71 218.79) rotate(-3.5)"/><rect class="cls-1" x="3471" y="2717.35" width="67.6" height="1.3" transform="translate(-159.4 219.04) rotate(-3.5)"/><rect class="cls-1" x="3564.33" y="2620.9" width="67.6" height="1.3" transform="translate(-153.33 224.55) rotate(-3.5)"/><rect class="cls-1" x="3567.45" y="2668.62" width="67.6" height="1.3" transform="translate(-156.24 224.83) rotate(-3.5)"/><rect class="cls-1" x="3570.05" y="2710.07" width="67.6" height="1.3" transform="translate(-158.77 225.07) rotate(-3.5)"/><rect class="cls-1" x="3462.94" y="2589.83" width="67.6" height="5.2" transform="translate(-172.32 250.23) rotate(-4)"/><rect class="cls-1" x="3561.99" y="2583.59" width="67.6" height="5.2" transform="translate(-171.64 257.13) rotate(-4)"/><polygon class="cls-1" points="3539.01 2216.81 3537.72 2216.89 3535.05 2172.51 3536.35 2172.43 3539.01 2216.81"/><rect class="cls-1" x="2599.35" y="2453.29" width="5.2" height="56.06"/><rect class="cls-1" x="2324.54" y="2592.2" width="238.21" height="5.2"/><rect class="cls-1" x="2599.35" y="2534.86" width="5.2" height="51.75"/><rect class="cls-1" x="2281.78" y="2536" width="318.38" height="1.3"/><rect class="cls-1" x="2324.1" y="2536.63" width="5.2" height="56.11"/><rect class="cls-1" x="2281.7" y="2536.47" width="5.2" height="54.98"/><rect class="cls-1" x="2121.1" y="2586.25" width="203.44" height="5.72"/><rect class="cls-1" x="2088.34" y="2540.52" width="152.11" height="5.2" transform="translate(4328.8 5086.24) rotate(-180)"/><rect class="cls-1" x="2085.04" y="2448.8" width="506.18" height="5.12" transform="translate(4676.26 4902.71) rotate(-180)"/><rect class="cls-1" x="2084.7" y="2453.91" width="5.2" height="90.99" transform="translate(4174.61 4998.82) rotate(-180)"/><rect class="cls-1" x="1912.59" y="2850.39" width="5.2" height="148.97" transform="translate(3830.39 5849.75) rotate(-180)"/><path class="cls-1" d="M1912.34,2850.39h5.59c.61-128.65,102.34-258.22,203.17-258.55V2586C2017.36,2586.43,1912.75,2719,1912.34,2850.39Z"/><rect class="cls-1" x="1861.98" y="2931.57" width="5.2" height="71.87" transform="translate(3729.17 5935.01) rotate(-180)"/><rect class="cls-1" x="1424.39" y="2828.81" width="447.74" height="5.2" transform="translate(3296.52 5662.82) rotate(-180)"/><rect class="cls-1" x="1309.04" y="2998.84" width="608.75" height="5.2" transform="translate(3226.84 6002.88) rotate(-180)"/><line class="cls-2" x1="2102.38" y1="2540.75" x2="2102.38" y2="2545.43"/><path class="cls-1" d="M1866.06,2829.07h6c.49-141.25,116-283.63,230.34-283.63v-4.69C1985.35,2540.75,1867.13,2685.31,1866.06,2829.07Z"/><path class="cls-1" d="M1772.46,2828.55h4.68c0-183.81,154.91-369.49,308.34-369.7v-4.94h-.13C1929.7,2453.91,1772.46,2642.18,1772.46,2828.55Z"/><rect class="cls-1" x="1736.22" y="2931.99" width="5.2" height="68.87" transform="translate(3477.63 5932.85) rotate(-180)"/><rect class="cls-1" x="1329.17" y="2931.63" width="536.14" height="1.3" transform="translate(3194.47 5864.57) rotate(-180)"/><rect class="cls-1" x="1814.32" y="2834.01" width="5.2" height="68.12" transform="translate(3633.84 5736.13) rotate(-180)"/><rect class="cls-1" x="1819.26" y="2896.93" width="44.72" height="5.2" transform="translate(3683.24 5799.05) rotate(-180)"/><rect class="cls-1" x="1965.32" y="2500.75" width="1.2" height="91.93" transform="translate(4920.03 3821.02) rotate(151)"/><rect class="cls-1" x="1925.74" y="2534.28" width="1.3" height="90.99" transform="translate(5032.68 3426.66) rotate(142)"/><rect class="cls-1" x="1890.73" y="2575.96" width="5.2" height="90.99" transform="translate(5113.91 2912.36) rotate(131)"/><rect class="cls-1" x="1860.34" y="2627.71" width="1.3" height="90.99" transform="translate(5101.25 2341.53) rotate(119)"/><rect class="cls-1" x="1380.19" y="2900.96" width="435.43" height="1.3" transform="translate(3195.81 5803.21) rotate(-180)"/><rect class="cls-1" x="1785.31" y="2750.17" width="90.99" height="1.3" transform="translate(2941.74 5862.84) rotate(-166)"/><rect class="cls-1" x="1798.52" y="2791.24" width="76.08" height="1.09" transform="translate(-1208.17 4168.97) rotate(-81)"/><polygon class="cls-1" points="1354.63 2799.6 1425.66 2796.87 1425.88 2801.9 1354.85 2804.63 1354.63 2799.6"/><rect class="cls-1" x="1243.5" y="2218.7" width="5.2" height="735.44" transform="translate(2603.84 5116.03) rotate(177.5)"/><rect class="cls-1" x="1613.17" y="2833.62" width="1.3" height="67.86" transform="translate(3227.64 5735.09) rotate(-180)"/><rect class="cls-1" x="1415.21" y="2338.92" width="5.2" height="562.31" transform="translate(2949.65 5175.15) rotate(177.48)"/><polygon class="cls-1" points="1234.73 2293.03 1425.48 2283.9 1425.67 2289.1 1234.92 2298.23 1234.73 2293.03"/><polygon class="cls-1" points="1425.45 2336.76 1430.64 2336.53 1425.25 2212.25 1420.06 2212.49 1425.45 2336.76"/><rect class="cls-1" x="1227.31" y="2213.72" width="197.96" height="5.2" transform="translate(2748.07 4372.62) rotate(177.5)"/><rect class="cls-1" x="1343.68" y="2289.98" width="1.3" height="510.51" transform="translate(2798.4 5029.41) rotate(177.5)"/><rect class="cls-1" x="1315.28" y="2289.87" width="1.3" height="642.29" transform="translate(2744.51 5162.14) rotate(177.5)"/><rect class="cls-1" x="1336" y="2338.26" width="70.18" height="1.37" transform="translate(2842.91 4615.85) rotate(177.5)"/><rect class="cls-1" x="1236.44" y="2343.4" width="67.6" height="1.3" transform="matrix(-1, 0.04, -0.04, -1, 2641.5, 4630.46)"/><rect class="cls-1" x="1238.14" y="2390.61" width="67.6" height="1.3" transform="matrix(-1, 0.04, -0.04, -1, 2646.96, 4724.77)"/><rect class="cls-1" x="1241" y="2431.09" width="67.6" height="1.3" transform="matrix(-1, 0.04, -0.04, -1, 2654.45, 4805.57)"/><rect class="cls-1" x="1242.64" y="2469.09" width="67.6" height="1.3" transform="translate(2680.38 4869.29) rotate(177)"/><rect class="cls-1" x="1244.34" y="2505.1" width="67.6" height="1.3" transform="matrix(-1, 0.04, -0.04, -1, 2664.36, 4953.36)"/><rect class="cls-1" x="1245.61" y="2554.52" width="67.6" height="1.3" transform="translate(2669.04 5052.1) rotate(177.5)"/><rect class="cls-1" x="1340.65" y="2459.68" width="67.6" height="1.3" transform="translate(2854.89 4858.37) rotate(177.5)"/><rect class="cls-1" x="1344.62" y="2551.43" width="67.6" height="1.3" transform="matrix(-1, 0.04, -0.04, -1, 2866.84, 5041.61)"/><polygon class="cls-1" points="1350.78 2680.36 1419.72 2677.41 1419.66 2676.11 1350.73 2679.06 1350.78 2680.36"/><rect class="cls-1" x="1354.3" y="2761.67" width="67.6" height="1.3" transform="translate(2895.36 5461.46) rotate(177.5)"/><rect class="cls-1" x="1250.94" y="2672.38" width="67.6" height="1.3" transform="translate(2684.84 5287.48) rotate(177.5)"/><rect class="cls-1" x="1254.4" y="2765.26" width="67.6" height="1.3" transform="matrix(-1, 0.04, -0.04, -1, 2695.82, 5473)"/><rect class="cls-1" x="1348.73" y="2630.87" width="67.6" height="5.2" transform="translate(2856.12 5217.09) rotate(178)"/><rect class="cls-1" x="1249.57" y="2635.02" width="67.6" height="5.2" transform="translate(2658 5228.85) rotate(178)"/><rect class="cls-1" x="2021.37" y="2467.69" width="1.2" height="91.93" transform="translate(4721.75 4279.46) rotate(162)"/><rect class="cls-1" x="1736.22" y="2832.75" width="5.2" height="68.99" transform="translate(3477.63 5734.49) rotate(-180)"/><polygon class="cls-1" points="1254.01 2803.87 1325.04 2801.14 1325.26 2806.16 1254.24 2808.89 1254.01 2803.87"/><polygon class="cls-1" points="1263.04 2950.39 1312.6 3000.47 1309.05 3004.03 1259.49 2953.94 1263.04 2950.39"/><polygon class="cls-1" points="1430.78 2340.86 1430.56 2335.67 1402.91 2336.84 1403.13 2342.03 1430.78 2340.86"/><rect class="cls-1" x="1248.25" y="2597.73" width="67.6" height="1.3" transform="translate(2676.22 5138.37) rotate(177.5)"/><rect class="cls-1" x="1377.27" y="2800.69" width="1.54" height="101.5" transform="translate(2903.42 5626.84) rotate(177)"/><rect class="cls-1" x="1615.99" y="2932.65" width="1.3" height="67.56" transform="translate(3233.28 5932.85) rotate(-180)"/><rect class="cls-1" x="1575.74" y="2931.93" width="1.3" height="68.99" transform="translate(3152.79 5932.85) rotate(-180)"/><rect class="cls-1" x="1493.81" y="2932.65" width="1.3" height="67.56" transform="translate(2988.93 5932.85) rotate(-180)"/><rect class="cls-1" x="1383.14" y="2932.65" width="1.3" height="67.56" transform="translate(2767.57 5932.85) rotate(-180)"/><rect class="cls-1" x="1495.97" y="2832.75" width="1.3" height="68.99" transform="translate(2993.24 5734.49) rotate(-180)"/><rect class="cls-1" x="1461.47" y="2833.39" width="1.3" height="67.56" transform="translate(2924.24 5734.33) rotate(-180)"/><rect class="cls-1" x="1696.8" y="2833.39" width="1.3" height="67.56" transform="translate(3394.9 5734.33) rotate(-180)"/><rect class="cls-1" x="1329.23" y="2931.21" width="1.3" height="67.56" transform="translate(2659.77 5929.98) rotate(-180)"/><rect class="cls-1" x="1861.98" y="2830.23" width="5.2" height="71.87" transform="translate(3729.17 5732.34) rotate(-180)"/><rect class="cls-1" x="2262.85" y="2540.52" width="22.77" height="5.2" transform="translate(4548.47 5086.24) rotate(-180)"/><rect class="cls-1" x="2603.68" y="2539.8" width="44.27" height="5.2"/><rect class="cls-1" x="2371.32" y="2536.85" width="1.3" height="58.53" transform="translate(4743.95 5132.24) rotate(-180)"/><rect class="cls-1" x="2350.27" y="2536.16" width="1.3" height="58.53" transform="translate(4701.84 5130.85) rotate(-180)"/><rect class="cls-1" x="2482" y="2536.16" width="1.3" height="58.53" transform="translate(4965.3 5130.85) rotate(-180)"/><rect class="cls-1" x="2512.9" y="2536.13" width="1.3" height="58.53" transform="translate(5027.11 5130.8) rotate(-180)"/><rect class="cls-1" x="2557.46" y="2450.61" width="1.3" height="58.53" transform="translate(5116.23 4959.75) rotate(-180)"/><rect class="cls-1" x="2512.35" y="2450.61" width="1.3" height="58.53" transform="translate(5025.99 4959.75) rotate(-180)"/><rect class="cls-1" x="2482.93" y="2452.42" width="5.2" height="57.49"/><rect class="cls-1" x="2400.28" y="2451.85" width="5.2" height="57.49"/><rect class="cls-1" x="2370.81" y="2451.85" width="5.2" height="57.49"/><rect class="cls-1" x="2281.73" y="2508.69" width="123.72" height="1.3"/><rect class="cls-1" x="2326.77" y="2450.61" width="1.3" height="58.53" transform="translate(4654.83 4959.75) rotate(-180)"/><rect class="cls-1" x="2483.8" y="2508.69" width="120.74" height="1.3"/><line class="cls-2" y2="5004"/><line class="cls-2" x1="80" y1="5000" x2="5004" y2="5004"/><line class="cls-2" x1="5000" y1="4928" x2="5004"/><line class="cls-2" x1="4933"/></svg>