<svg id="Слой_1" data-name="Слой 1" xmlns="http://www.w3.org/2000/svg" xmlns:xlink="http://www.w3.org/1999/xlink" viewBox="0 0 3374.99 1310.84"><defs><style>.cls-1,.cls-3,.cls-4{fill:#666;}.cls-10,.cls-11,.cls-12,.cls-14,.cls-15,.cls-2,.cls-6,.cls-7,.cls-9{fill:none;}.cls-10,.cls-11,.cls-12,.cls-13,.cls-14,.cls-15,.cls-3,.cls-4,.cls-5,.cls-6,.cls-7,.cls-9{stroke:#666;stroke-miterlimit:10;}.cls-3,.cls-9{stroke-width:1.8px;}.cls-15,.cls-4{stroke-width:5px;}.cls-5{fill:#4d4d4d;}.cls-5,.cls-6{stroke-width:7.5px;}.cls-7{stroke-width:1.75px;}.cls-8{fill:#fff;}.cls-10,.cls-13{stroke-width:1.7px;}.cls-11{stroke-width:5.5px;}.cls-12{stroke-width:4.5px;}.cls-13{fill:url(#Безымянный_градиент);}.cls-14{stroke-width:7.8px;}</style><linearGradient id="Безымянный_градиент" x1="3292" y1="2568.5" x2="3402" y2="2568.5" gradientTransform="matrix(1.02, -0.01, -0.01, 1.01, -918.25, -1681.92)" gradientUnits="userSpaceOnUse"><stop offset="0" stop-color="#fff"/><stop offset="1"/></linearGradient></defs><rect class="cls-1" x="1846.01" y="729.46" width="270.98" height="7.96"/><rect class="cls-1" x="1462.4" y="545.09" width="7.23" height="78.07"/><rect class="cls-1" x="2008.01" y="665.55" width="154.56" height="7.23"/><rect class="cls-1" x="1462.86" y="538.21" width="704.31" height="7.12"/><rect class="cls-1" x="2160.41" y="545.33" width="7.23" height="126.61"/><rect class="cls-1" x="2399.88" y="1280.39" width="7.23" height="28.89"/><path class="cls-1" d="M3276.44,2810.61h-7.79c-.85-179-142.39-359.29-282.7-359.76v-8.14C3130.3,2443.33,3275.86,2627.72,3276.44,2810.61Z" transform="translate(-868.96 -1713.61)"/><rect class="cls-1" x="2467.89" y="1195.39" width="7.23" height="108.89"/><rect class="cls-1" x="2467.89" y="1067.39" width="7.23" height="102"/><rect class="cls-1" x="2463.19" y="1066.97" width="631.61" height="7.23"/><rect class="cls-1" x="2399.88" y="1303.56" width="904.37" height="7.23"/><line class="cls-2" x1="2143.04" y1="666.15" x2="2143.04" y2="672.66"/><path class="cls-1" d="M3340.82,2780.94h-8.31c-.69-196.54-161.41-394.65-320.51-394.65v-6.52C3174.84,2379.77,3339.34,2580.91,3340.82,2780.94Z" transform="translate(-868.96 -1713.61)"/><path class="cls-1" d="M3471.06,2780.22h-6.51c0-255.75-215.55-514.11-429-514.4v-6.88h.18C3252.27,2258.94,3471.06,2520.91,3471.06,2780.22Z" transform="translate(-868.96 -1713.61)"/><rect class="cls-1" x="2710.81" y="1073.12" width="7.23" height="99.05"/><rect class="cls-1" x="2709.81" y="1208.12" width="7.23" height="99.05"/><line class="cls-3" x1="2654.22" y1="1211.13" x2="2656.03" y2="1211.13"/><line class="cls-3" x1="2656.03" y1="1304.1" x2="2654.22" y2="1304.1"/><line class="cls-3" x1="2598.22" y1="1211.13" x2="2600.03" y2="1211.13"/><line class="cls-3" x1="2600.03" y1="1304.1" x2="2598.22" y2="1304.1"/><rect class="cls-1" x="2536.62" y="1074.21" width="7.23" height="94.78"/><polygon class="cls-1" points="1962.79 730.25 1960.98 730.16 1961.61 670.88 1963.41 670.98 1962.79 730.25"/><rect class="cls-1" x="3186.68" y="2313.65" width="1.68" height="127.91" transform="translate(1137.34 -3133.11) rotate(36)"/><polygon class="cls-1" points="2325.14 861.57 2329.6 867.27 2486.09 743.07 2481.63 737.36 2325.14 861.57"/><rect class="cls-1" x="2826.38" y="1211.22" width="1.81" height="97.67"/><rect class="cls-1" x="3059.26" y="1210.22" width="1.81" height="97.67"/><line class="cls-3" x1="3061.52" y1="1243.32" x2="3061.52" y2="1241.52"/><line class="cls-3" x1="3032.4" y1="1211.49" x2="3034.21" y2="1211.49"/><line class="cls-3" x1="3060.26" y1="1223.43" x2="3060.26" y2="1225.24"/><rect class="cls-1" x="3962.05" y="2776.97" width="131.98" height="7.23" transform="translate(-1008.98 -1498.97) rotate(-3)"/><rect class="cls-1" x="4123.9" y="2768.35" width="108.11" height="7.23" transform="translate(-1008.32 -1491.13) rotate(-3)"/><rect class="cls-1" x="4132.96" y="2863.22" width="103.05" height="7.23" transform="translate(-1013.28 -1490.65) rotate(-3)"/><rect class="cls-1" x="3963.04" y="2685.08" width="7.23" height="95.5" transform="translate(-1049.93 -1430.25) rotate(-4)"/><polygon class="cls-1" points="3219.78 963.35 3093.35 971.6 3093.77 978.58 3220.2 970.33 3219.78 963.35"/><polygon class="cls-1" points="3353.78 954.35 3246.79 961.41 3247.21 968.39 3354.2 961.33 3353.78 954.35"/><rect class="cls-1" x="4202.88" y="1852.88" width="7.23" height="1097.18" transform="translate(-1007.72 -1452.34) rotate(-3.5)"/><rect class="cls-1" x="2826.07" y="1070.48" width="1.81" height="140.91"/><rect class="cls-1" x="4202.15" y="2931.79" width="7.23" height="104.18" transform="translate(2295.92 -3780.33) rotate(43)"/><rect class="cls-1" x="3168.24" y="1067.39" width="7.23" height="236.71"/><polygon class="cls-1" points="3269.83 1114.73 3262.6 1115.11 3260.91 1063.21 3268.13 1062.83 3269.83 1114.73"/><rect class="cls-1" x="3959.78" y="1935.54" width="7.23" height="748.82" transform="translate(-1002.59 -1467.34) rotate(-3.5)"/><polygon class="cls-1" points="3177.22 215.44 3073.48 222.7 3073.94 229.92 3177.67 222.67 3177.22 215.44"/><polygon class="cls-1" points="3310.01 208.35 3204.48 213.7 3204.94 220.92 3310.47 215.58 3310.01 208.35"/><polygon class="cls-1" points="3069.62 228.86 3062.4 229.3 3057.85 155.58 3065.07 155.14 3069.62 228.86"/><rect class="cls-1" x="3933.01" y="1861.38" width="238.75" height="7.23" transform="translate(-975.26 -1462.74) rotate(-3.5)"/><polygon class="cls-1" points="3215.65 964.57 3213.85 964.68 3198.71 731.47 3200.51 731.36 3215.65 964.57"/><rect class="cls-1" x="4113.83" y="2272.66" width="1.81" height="403.63" transform="translate(-1012.35 -1457.8) rotate(-3.5)"/><rect class="cls-4" x="3970.29" y="2392.03" width="97.33" height="1.81" transform="translate(-1007.55 -1463.79) rotate(-3.5)"/><rect class="cls-1" x="3982.49" y="2562.92" width="94.05" height="1.81" transform="translate(-1017.96 -1462.83) rotate(-3.5)"/><rect class="cls-1" x="3978.49" y="2504.92" width="94.05" height="1.81" transform="translate(-1014.43 -1463.18) rotate(-3.5)"/><rect class="cls-1" x="3986.19" y="2624.21" width="94.05" height="1.81" transform="translate(-1021.7 -1462.49) rotate(-3.5)"/><rect class="cls-1" x="4120.4" y="2552.4" width="94.05" height="1.81" transform="translate(-1017.06 -1454.43) rotate(-3.5)"/><polygon class="cls-1" points="3338.49 729.64 3106.38 744.67 3105.88 737.45 3337.98 722.42 3338.49 729.64"/><rect class="cls-1" x="1904.4" y="544.17" width="7.24" height="78"/><rect class="cls-1" x="1904.4" y="659.39" width="7.24" height="70.28"/><rect class="cls-1" x="1844.4" y="659.67" width="7.24" height="79.72"/><rect class="cls-1" x="1521.4" y="660.13" width="7.23" height="78.07"/><rect class="cls-1" x="1462.4" y="659.92" width="7.23" height="76.5"/><rect class="cls-1" x="1238.94" y="729.17" width="283.07" height="7.96"/><rect class="cls-1" x="2062.32" y="2379.16" width="148.65" height="7.23" transform="translate(3404.33 3051.94) rotate(-180)"/><rect class="cls-1" x="2057.72" y="2251.53" width="704.31" height="7.12" transform="translate(3950.8 2796.57) rotate(-180)"/><rect class="cls-1" x="2057.25" y="2258.65" width="7.23" height="126.61" transform="translate(3252.79 2930.31) rotate(-180)"/><rect class="cls-1" x="1857.78" y="2790" width="7.23" height="224.6" transform="translate(2853.83 4090.99) rotate(-180)"/><path class="cls-1" d="M1817.42,2810.32h7.78c.85-179,142.4-359.29,282.7-359.75v-8.14C1963.56,2443,1818,2627.43,1817.42,2810.32Z" transform="translate(-868.96 -1713.61)"/><rect class="cls-1" x="1747.36" y="2923.28" width="7.23" height="100" transform="translate(2632.99 4232.94) rotate(-180)"/><rect class="cls-1" x="1138.47" y="2780.3" width="608.53" height="7.23" transform="translate(2016.51 3854.22) rotate(-180)"/><rect class="cls-1" x="977.97" y="3016.88" width="843.03" height="7.23" transform="translate(1930.01 4327.38) rotate(-180)"/><line class="cls-2" x1="1212.89" y1="665.87" x2="1212.89" y2="672.38"/><path class="cls-1" d="M1753,2780.65h8.32c.68-196.53,161.4-394.65,320.5-394.65v-6.52C1919,2379.48,1754.51,2580.62,1753,2780.65Z" transform="translate(-868.96 -1713.61)"/><path class="cls-1" d="M1622.79,2779.93h6.51c0-255.75,215.55-514.11,429-514.4v-6.88h-.18C1841.58,2258.65,1622.79,2520.62,1622.79,2779.93Z" transform="translate(-868.96 -1713.61)"/><rect class="cls-1" x="1572.36" y="2923.87" width="7.23" height="95.83" transform="translate(2282.99 4229.94) rotate(-180)"/><rect class="cls-1" x="1081" y="2923.37" width="670.97" height="1.81" transform="translate(1964.01 4134.93) rotate(-180)"/><rect class="cls-1" x="1688.04" y="2786.53" width="7.23" height="12.25" transform="translate(2514.35 3871.7) rotate(-180)"/><rect class="cls-1" x="1688.04" y="2835.53" width="7.23" height="13.25" transform="translate(2514.35 3970.7) rotate(-180)"/><rect class="cls-1" x="1638.38" y="2781.18" width="7.23" height="135.94" transform="translate(-2076.11 2777.54) rotate(-90)"/><rect class="cls-1" x="1758.87" y="2766.64" width="7.23" height="35.03" transform="translate(-1890.63 2833.03) rotate(-90)"/><rect class="cls-1" x="1809.88" y="2770.65" width="7.23" height="25" transform="translate(-1838.61 2883.04) rotate(-90)"/><polygon class="cls-1" points="1034.05 857.7 1029.3 863.16 871.86 739.36 876.61 733.9 1034.05 857.7"/><polygon class="cls-1" points="1078.66 805.15 1073.91 810.61 927.86 671.36 932.61 665.9 1078.66 805.15"/><rect class="cls-1" x="1076.97" y="2880.68" width="502" height="1.81" transform="translate(1786.99 4049.56) rotate(-180)"/><polygon class="cls-1" points="172.44 1026.04 271.27 1022.25 271.58 1029.24 172.75 1033.03 172.44 1026.04"/><rect class="cls-1" x="889.03" y="2034.36" width="7.23" height="920.27" transform="translate(1024.29 3234.08) rotate(177.5)"/><line class="cls-1" x1="532.19" y1="1167.79" x2="533.99" y2="1167.79"/><line class="cls-1" x1="533.99" y1="1073.38" x2="532.19" y2="1073.38"/><rect class="cls-1" x="1125.7" y="2098.64" width="7.24" height="782.41" transform="translate(1498.24 3213.93) rotate(177.48)"/><polygon class="cls-1" points="5.61 321.18 271.03 308.48 271.3 315.71 5.88 328.42 5.61 321.18"/><polygon class="cls-1" points="270.99 382.03 278.22 381.71 275.04 308 267.82 308.31 270.99 382.03"/><rect class="cls-1" x="1026.17" y="2030.54" width="1.81" height="710.35" transform="translate(1288.28 3010.75) rotate(177.5)"/><rect class="cls-1" x="984.89" y="2030.43" width="1.81" height="812.72" transform="translate(1207.98 3114.65) rotate(177.5)"/><line class="cls-1" x1="152.34" y1="522.34" x2="152.42" y2="524.15"/><line class="cls-1" x1="246.39" y1="520.04" x2="246.31" y2="518.24"/><rect class="cls-1" x="883.29" y="2239.9" width="94.05" height="1.81" transform="matrix(-1, 0.04, -0.04, -1, 1088.54, 2725.28)"/><rect class="cls-1" x="969.98" y="2080.09" width="44.05" height="1.81" transform="translate(1204.87 2403.12) rotate(177.5)"/><line class="cls-1" x1="155.64" y1="609.62" x2="155.73" y2="611.42"/><line class="cls-1" x1="249.66" y1="606.5" x2="249.56" y2="604.69"/><rect class="cls-1" x="889.71" y="2398.64" width="94.05" height="1.81" transform="translate(1108.28 3042.33) rotate(177.5)"/><line class="cls-1" x1="152.99" y1="565.12" x2="153.07" y2="566.93"/><line class="cls-1" x1="248.1" y1="562.78" x2="248.02" y2="560.97"/><rect class="cls-1" x="1027.48" y="2394.34" width="94.05" height="1.81" transform="translate(1383.5 3027.74) rotate(177.5)"/><rect class="cls-1" x="1040.95" y="2686.87" width="94.05" height="1.81" transform="translate(1423.19 3611.93) rotate(177.5)"/><rect class="cls-1" x="899.12" y="2588.63" width="94.05" height="1.81" transform="translate(1135.39 3421.73) rotate(177.5)"/><rect class="cls-1" x="1572.36" y="2785.78" width="7.23" height="96" transform="translate(2282.99 3953.94) rotate(-180)"/><polygon class="cls-1" points="28.45 976.98 127.27 973.18 127.58 980.17 28.75 983.97 28.45 976.98"/><polygon class="cls-1" points="45.01 1235.85 113.96 1305.53 109.02 1310.48 40.07 1240.8 45.01 1235.85"/><polygon class="cls-1" points="278.41 387.74 278.09 380.51 239.62 382.14 239.94 389.37 278.41 387.74"/><rect class="cls-1" x="1039.39" y="2658.76" width="94.05" height="1.81" transform="translate(1418.85 3555.8) rotate(177.5)"/><rect class="cls-1" x="1532.07" y="2923.78" width="1.81" height="94" transform="translate(2196.99 4227.94) rotate(-180)"/><rect class="cls-1" x="1483.07" y="2924.78" width="1.81" height="94" transform="translate(2098.99 4229.94) rotate(-180)"/><rect class="cls-1" x="1236.07" y="2786.78" width="1.81" height="96" transform="translate(1604.99 3955.94) rotate(-180)"/><rect class="cls-1" x="1187.07" y="2787.67" width="1.81" height="94" transform="translate(1506.99 3955.72) rotate(-180)"/><rect class="cls-1" x="1530.51" y="2787.67" width="1.81" height="94" transform="translate(2193.88 3955.72) rotate(-180)"/><rect class="cls-1" x="1747.36" y="2829" width="7.23" height="48" transform="translate(2632.99 3992.39) rotate(-180)"/><rect class="cls-1" x="2305.13" y="2379.16" width="31.68" height="7.23" transform="translate(3772.99 3051.94) rotate(-180)"/><rect class="cls-1" x="2243.13" y="2379.16" width="31.68" height="7.23" transform="translate(3648.99 3051.94) rotate(-180)"/><rect class="cls-1" x="1910.41" y="664.55" width="61.6" height="7.23"/><rect class="cls-1" x="1742.4" y="542.97" width="7.24" height="80"/><rect class="cls-1" x="1780.4" y="542.97" width="7.24" height="80"/><rect class="cls-1" x="1844.4" y="542.97" width="7.24" height="80"/><rect class="cls-1" x="1627.4" y="542.17" width="7.24" height="80"/><rect class="cls-1" x="1586.4" y="542.17" width="7.23" height="80"/><rect class="cls-1" x="1521.4" y="542.17" width="7.23" height="80"/><rect class="cls-1" x="1462.44" y="621.26" width="172.15" height="1.81"/><rect class="cls-1" x="1400.01" y="668.26" width="40" height="1.81"/><rect class="cls-1" x="1338.01" y="668.26" width="40" height="1.81"/><rect class="cls-1" x="2229.97" y="2412.87" width="58" height="1.81" transform="translate(3803.79 -1558.81) rotate(90)"/><rect class="cls-1" x="1743.61" y="621.26" width="168" height="1.81"/><line class="cls-5" x1="2532.04" y1="1165.39" x2="2538.01" y2="1165.17"/><line class="cls-5" x1="2472.04" y1="1178.39" x2="2472.04" y2="1168.39"/><line class="cls-5" x1="2475.01" y1="1165.67" x2="2513.04" y2="1165.4"/><line class="cls-6" x1="3160.04" y1="176.39" x2="3159.04" y2="153.39"/><line class="cls-6" x1="3163.04" y1="228.39" x2="3162.04" y2="205.39"/><line class="cls-7" x1="884.01" y1="1127.39" x2="990.04" y2="1126.39"/><rect class="cls-8" x="1762.12" y="2668.26" width="14.27" height="30.76" transform="translate(-39.83 -2103.79) rotate(16.39)"/><line class="cls-6" x1="2122.25" y1="538.15" x2="2100.25" y2="0.15"/><line class="cls-6" x1="1910.25" y1="538.15" x2="1889.25" y2="13.15"/><line class="cls-6" x1="1889.04" y1="17.39" x2="2100.04" y2="4.39"/><line class="cls-6" x1="1979.04" y1="72.39" x2="2103.04" y2="64.38"/><line class="cls-6" x1="1895.04" y1="77.39" x2="1980.04" y2="72.39"/><line class="cls-6" x1="1894.04" y1="182.39" x2="2105.04" y2="169.39"/><line class="cls-6" x1="3266.04" y1="1307.39" x2="3266.04" y2="1113.39"/><path class="cls-9" d="M2776,2304" transform="translate(-868.96 -1713.61)"/><path class="cls-9" d="M2717,2304" transform="translate(-868.96 -1713.61)"/><path class="cls-9" d="M2738,2337" transform="translate(-868.96 -1713.61)"/><path class="cls-9" d="M2689,2336" transform="translate(-868.96 -1713.61)"/><path class="cls-9" d="M2654,2312" transform="translate(-868.96 -1713.61)"/><path class="cls-9" d="M2689,2258" transform="translate(-868.96 -1713.61)"/><line class="cls-9" x1="1610.04" y1="622.39" x2="1610.04" y2="592.39"/><line class="cls-9" x1="1592.04" y1="592.39" x2="1629.04" y2="592.39"/><line class="cls-9" x1="1768.04" y1="622.39" x2="1768.04" y2="593.39"/><line class="cls-9" x1="1746.04" y1="593.39" x2="1782.04" y2="593.39"/><line class="cls-6" x1="1466.04" y1="541.39" x2="1457.04" y2="203.39"/><line class="cls-6" x1="1249.04" y1="541.39" x2="1241.04" y2="214.39"/><line class="cls-6" x1="1450.04" y1="200.39" x2="1237.04" y2="214.38"/><line class="cls-6" x1="1245.04" y1="117.39" x2="1247.04" y2="214.39"/><line class="cls-6" x1="1445.04" y1="104.39" x2="1449.04" y2="204.39"/><line class="cls-6" x1="1232.04" y1="118.39" x2="1443.04" y2="103.39"/><line class="cls-6" x1="1232.04" y1="61.39" x2="1236.04" y2="118.39"/><line class="cls-6" x1="1447.04" y1="49.39" x2="1453.04" y2="105.39"/><line class="cls-6" x1="1228.04" y1="64.39" x2="1451.04" y2="51.39"/><line class="cls-9" x1="1006.04" y1="607.39" x2="1078.04" y2="713.39"/><line class="cls-9" x1="791.04" y1="889.39" x2="910.04" y2="937.39"/><line class="cls-9" x1="827.04" y1="810.39" x2="946.04" y2="858.39"/><line class="cls-6" x1="208.04" y1="1169.39" x2="207.04" y2="1138.39"/><line class="cls-6" x1="205.54" y1="1107.89" x2="202.04" y2="1029.39"/><line class="cls-6" x1="135.04" y1="1126.39" x2="42.04" y2="1130.39"/><path class="cls-9" d="M1001,2785" transform="translate(-868.96 -1713.61)"/><path class="cls-9" d="M957,2694" transform="translate(-868.96 -1713.61)"/><path class="cls-9" d="M1000,2763" transform="translate(-868.96 -1713.61)"/><path class="cls-9" d="M906,2759" transform="translate(-868.96 -1713.61)"/><line class="cls-9" x1="1969.04" y1="178.39" x2="1983.04" y2="541.39"/><path class="cls-9" d="M2986,2167" transform="translate(-868.96 -1713.61)"/><path class="cls-9" d="M2849,2173" transform="translate(-868.96 -1713.61)"/><path class="cls-9" d="M2875,1909" transform="translate(-868.96 -1713.61)"/><path class="cls-9" d="M2885,2171" transform="translate(-868.96 -1713.61)"/><path class="cls-9" d="M2979,1996" transform="translate(-868.96 -1713.61)"/><path class="cls-9" d="M2982,2053" transform="translate(-868.96 -1713.61)"/><path class="cls-9" d="M2984,2109" transform="translate(-868.96 -1713.61)"/><rect class="cls-8" x="1986.04" y="535.39" width="28" height="12"/><rect class="cls-8" x="3009.5" y="2246.5" width="11.5" height="15.5" transform="translate(-107.96 3555.89) rotate(-90)"/><rect class="cls-8" x="3961.3" y="2431.27" width="18.96" height="8.48" transform="translate(5290.38 -3390.16) rotate(86.5)"/><rect class="cls-8" x="2861" y="1881" width="32" height="15" transform="translate(-979.65 -1533.12) rotate(-3.53)"/><rect class="cls-8" x="2743" y="1751" width="32" height="15" transform="translate(3536.86 -2782.19) rotate(87.71)"/><path class="cls-10" d="M3380,2487" transform="translate(-868.96 -1713.61)"/><path class="cls-10" d="M3278,2516" transform="translate(-868.96 -1713.61)"/><line class="cls-10" x1="2572.04" y1="903.39" x2="2450.04" y2="946.39"/><line class="cls-10" x1="2594.04" y1="995.39" x2="2466.04" y2="1021.39"/><line class="cls-6" x1="2404.04" y1="1244.39" x2="2404.04" y2="1202.39"/><line class="cls-6" x1="2404.04" y1="1204.39" x2="2404.04" y2="1111.39"/><line class="cls-9" x1="3210.04" y1="152.39" x2="3214.04" y2="218.39"/><line class="cls-9" x1="3240.04" y1="664.39" x2="3199.04" y2="666.39"/><line class="cls-6" x1="1456.04" y1="102.39" x2="1428.04" y2="104.39"/><line class="cls-6" x1="1461.04" y1="200.39" x2="1446.04" y2="200.39"/><line class="cls-9" x1="1391.04" y1="207.39" x2="1402.04" y2="540.39"/><rect class="cls-8" x="1345.04" y="533.39" width="24" height="12"/><line class="cls-9" x1="1372.04" y1="541.39" x2="1341.04" y2="541.39"/><line class="cls-9" x1="1334.04" y1="671.39" x2="1334.04" y2="731.39"/><line class="cls-9" x1="1104.04" y1="788.39" x2="1078.04" y2="713.39"/><line class="cls-6" x1="1194.04" y1="670.39" x2="1213.04" y2="734.39"/><line class="cls-7" x1="992.04" y1="1214.39" x2="949.04" y2="1214.39"/><line class="cls-7" x1="785.04" y1="1210.39" x2="785.04" y2="1306.39"/><path class="cls-7" d="M1691,2881" transform="translate(-868.96 -1713.61)"/><path class="cls-7" d="M1691,2850" transform="translate(-868.96 -1713.61)"/><path class="cls-7" d="M1692,2881" transform="translate(-868.96 -1713.61)"/><path class="cls-7" d="M1577,2881" transform="translate(-868.96 -1713.61)"/><line class="cls-6" x1="948.04" y1="1307.39" x2="949.04" y2="1206.39"/><line class="cls-6" x1="995.04" y1="1297.39" x2="948.04" y2="1296.39"/><line class="cls-6" x1="950.04" y1="1127.39" x2="950.04" y2="1159.39"/><line class="cls-6" x1="996.04" y1="1079.39" x2="953.04" y2="1079.39"/><line class="cls-10" x1="319.04" y1="1117.39" x2="367.04" y2="1118.39"/><line class="cls-10" x1="341.04" y1="1168.39" x2="341.04" y2="1118.39"/><line class="cls-6" x1="368.04" y1="1210.39" x2="368.04" y2="1306.39"/><line class="cls-6" x1="292.04" y1="1211.39" x2="291.04" y2="1307.39"/><line class="cls-6" x1="133.03" y1="1151.39" x2="131.04" y2="1125.39"/><line class="cls-6" x1="135.04" y1="1194.39" x2="136.04" y2="1213.39"/><line class="cls-9" x1="213.04" y1="1210.39" x2="136.04" y2="1209.38"/><line class="cls-9" x1="136.04" y1="1211.39" x2="136.04" y2="1304.39"/><line class="cls-9" x1="135.04" y1="1206.39" x2="43.04" y2="1210.39"/><line class="cls-9" x1="133.04" y1="1148.39" x2="135.04" y2="1199.39"/><line class="cls-9" x1="320.04" y1="1131.39" x2="279.04" y2="1131.39"/><line class="cls-9" x1="133.04" y1="1094.39" x2="39.04" y2="1097.39"/><path class="cls-7" d="M1136,1975" transform="translate(-868.96 -1713.61)"/><path class="cls-7" d="M872,1988" transform="translate(-868.96 -1713.61)"/><path class="cls-7" d="M1058,2028" transform="translate(-868.96 -1713.61)"/><path class="cls-7" d="M968,2031" transform="translate(-868.96 -1713.61)"/><path class="cls-7" d="M1019,2006" transform="translate(-868.96 -1713.61)"/><path class="cls-7" d="M1004,1930" transform="translate(-868.96 -1713.61)"/><line class="cls-6" x1="245.04" y1="385.39" x2="146.04" y2="389.39"/><line class="cls-6" x1="103.04" y1="391.39" x2="8.04" y2="396.39"/><line class="cls-6" x1="2402.04" y1="1295.39" x2="2355.04" y2="1295.39"/><line class="cls-6" x1="2358.04" y1="1299.39" x2="2362.04" y2="1083.39"/><line class="cls-6" x1="2358.04" y1="1084.39" x2="2403.04" y2="1084.39"/><line class="cls-9" x1="2404.04" y1="1159.39" x2="2363.04" y2="1159.39"/><line class="cls-9" x1="2403.04" y1="1220.39" x2="2362.04" y2="1220.39"/><line class="cls-9" x1="3172.04" y1="279.39" x2="3077.04" y2="285.39"/><line class="cls-9" x1="3167.04" y1="222.39" x2="3190.04" y2="562.39"/><line class="cls-9" x1="3138.04" y1="281.39" x2="3134.04" y2="224.39"/><line class="cls-9" x1="3139.04" y1="297.39" x2="3138.04" y2="281.39"/><line class="cls-9" x1="3148.04" y1="297.39" x2="3139.04" y2="297.39"/><line class="cls-9" x1="3158.04" y1="440.39" x2="3148.04" y2="297.39"/><line class="cls-9" x1="3150.04" y1="440.39" x2="3158.04" y2="440.39"/><line class="cls-9" x1="3086.04" y1="460.39" x2="3182.04" y2="453.39"/><line class="cls-9" x1="3150.04" y1="455.39" x2="3149.04" y2="440.39"/><line class="cls-9" x1="3152.04" y1="473.39" x2="3150.04" y2="456.39"/><line class="cls-9" x1="3162.04" y1="471.39" x2="3152.04" y2="473.39"/><line class="cls-9" x1="3165.04" y1="547.39" x2="3162.04" y2="471.39"/><line class="cls-9" x1="3158.04" y1="547.39" x2="3164.04" y2="547.39"/><line class="cls-9" x1="3160.04" y1="564.39" x2="3157.04" y2="547.39"/><line class="cls-9" x1="3093.04" y1="568.39" x2="3329.04" y2="552.39"/><line class="cls-9" x1="3203.04" y1="733.39" x2="3200.04" y2="667.39"/><line class="cls-9" x1="3211.04" y1="666.39" x2="3207.04" y2="604.39"/><line class="cls-9" x1="3096.04" y1="587.39" x2="3166.04" y2="584.39"/><line class="cls-9" x1="3171.05" y1="677.39" x2="3166.05" y2="583.39"/><line class="cls-9" x1="3167.04" y1="607.39" x2="3208.04" y2="604.39"/><line class="cls-6" x1="3102.54" y1="749.89" x2="3063.04" y2="751.39"/><line class="cls-6" x1="3064.04" y1="734.89" x2="3065.04" y2="754.89"/><line class="cls-6" x1="3059.04" y1="615.39" x2="3063.04" y2="716.39"/><line class="cls-6" x1="3096.04" y1="617.39" x2="3055.04" y2="619.39"/><line class="cls-10" x1="3333.04" y1="603.39" x2="3236.04" y2="609.39"/><line class="cls-10" x1="3319.04" y1="959.39" x2="3321.04" y2="994.39"/><line class="cls-10" x1="3356.04" y1="993.39" x2="3320.04" y2="994.39"/><line class="cls-6" x1="3209.04" y1="967.39" x2="3211.04" y2="996.39"/><line class="cls-6" x1="3215.04" y1="1064.39" x2="3213.04" y2="1030.39"/><line class="cls-11" x1="2983.04" y1="1071.39" x2="2981.04" y2="976.39"/><line class="cls-11" x1="3095.04" y1="974.39" x2="2978.04" y2="977.39"/><line class="cls-11" x1="3055.04" y1="976.39" x2="3057.04" y2="1071.39"/><line class="cls-12" x1="3098.04" y1="1020.39" x2="3056.04" y2="1020.39"/><line class="cls-11" x1="3357.04" y1="991.39" x2="3369.04" y2="991.39"/><line class="cls-11" x1="3358.04" y1="1022.39" x2="3371.04" y2="1022.39"/><line class="cls-11" x1="3370.05" y1="988.39" x2="3370.04" y2="1025.39"/><line class="cls-10" x1="3356.04" y1="1020.39" x2="3341.04" y2="1019.39"/><line class="cls-10" x1="3341.04" y1="994.39" x2="3341.04" y2="1020.39"/><line class="cls-10" x1="3172.04" y1="1214.39" x2="3266.04" y2="1214.39"/><line class="cls-10" x1="3171.04" y1="1209.39" x2="3060.04" y2="1209.39"/><line class="cls-10" x1="3059.04" y1="1071.39" x2="3060.04" y2="1217.39"/><line class="cls-10" x1="3059.04" y1="1142.39" x2="3078.04" y2="1142.39"/><line class="cls-10" x1="3092.04" y1="1125.39" x2="3078.04" y2="1143.39"/><line class="cls-10" x1="3091.04" y1="1087.39" x2="3092.04" y2="1126.39"/><line class="cls-10" x1="3059.04" y1="1088.39" x2="3092.04" y2="1088.39"/><line class="cls-10" x1="3060.04" y1="1164.39" x2="2827.04" y2="1163.39"/><line class="cls-10" x1="2714.04" y1="1211.39" x2="2827.04" y2="1211.39"/><line class="cls-10" x1="2871.04" y1="1163.39" x2="2871.04" y2="1216.39"/><line class="cls-10" x1="2827.04" y1="1216.39" x2="2885.04" y2="1216.39"/><line class="cls-10" x1="2885.04" y1="1308.39" x2="2885.04" y2="1215.39"/><line class="cls-9" x1="2470.04" y1="1209.39" x2="2540.04" y2="1209.39"/><line class="cls-9" x1="2540.04" y1="1165.39" x2="2539.04" y2="1306.39"/><line class="cls-10" x1="2404.04" y1="1093.39" x2="2404.04" y2="1115.39"/><line class="cls-13" x1="2423.04" y1="884.39" x2="2536.04" y2="823.39"/><line class="cls-6" x1="2285.04" y1="816.39" x2="2436.04" y2="681.39"/><line class="cls-10" x1="2229.04" y1="687.39" x2="2192.04" y2="746.39"/><line class="cls-10" x1="2163.04" y1="561.39" x2="2132.04" y2="561.39"/><line class="cls-10" x1="2133.04" y1="541.39" x2="2133.04" y2="562.39"/><line class="cls-10" x1="1966.04" y1="543.39" x2="1964.04" y2="615.39"/><line class="cls-10" x1="1908.04" y1="615.39" x2="1965.04" y2="615.39"/><line class="cls-9" x1="1974.04" y1="287.39" x2="1901.04" y2="289.39"/><line class="cls-9" x1="1976.04" y1="345.39" x2="1903.04" y2="347.39"/><line class="cls-9" x1="1978.04" y1="399.39" x2="1906.04" y2="403.39"/><line class="cls-9" x1="1976.04" y1="345.39" x2="2111.04" y2="341.39"/><line class="cls-9" x1="1980.04" y1="470.39" x2="2055.04" y2="470.39"/><line class="cls-9" x1="2056.04" y1="509.39" x2="2055.04" y2="450.39"/><line class="cls-9" x1="2117.04" y1="449.38" x2="2054.04" y2="450.38"/><line class="cls-9" x1="1982.04" y1="509.39" x2="2057.04" y2="510.39"/><line class="cls-9" x1="2056.04" y1="539.39" x2="2056.04" y2="505.39"/><line class="cls-9" x1="2012.04" y1="10.39" x2="2016.04" y2="68.39"/><line class="cls-9" x1="1889.04" y1="25.39" x2="1891.04" y2="65.39"/><line class="cls-14" x1="1521.04" y1="739.39" x2="1611.04" y2="739.39"/><line class="cls-14" x1="1629.04" y1="739.39" x2="1677.04" y2="739.39"/><line class="cls-14" x1="1694.04" y1="739.39" x2="1744.04" y2="739.39"/><line class="cls-14" x1="1762.04" y1="739.39" x2="1852.04" y2="739.39"/><line class="cls-9" x1="1599.04" y1="737.39" x2="1599.04" y2="721.39"/><line class="cls-9" x1="1643.04" y1="721.39" x2="1599.04" y2="721.39"/><line class="cls-9" x1="1644.04" y1="737.39" x2="1644.04" y2="720.39"/><line class="cls-9" x1="1665.04" y1="739.39" x2="1665.04" y2="722.39"/><line class="cls-9" x1="1708.04" y1="722.39" x2="1664.04" y2="722.39"/><line class="cls-9" x1="1708.04" y1="739.39" x2="1708.04" y2="722.39"/><line class="cls-9" x1="1732.04" y1="737.39" x2="1732.04" y2="722.39"/><line class="cls-9" x1="1774.04" y1="721.39" x2="1732.04" y2="721.39"/><line class="cls-9" x1="1775.04" y1="738.39" x2="1775.04" y2="720.39"/><line class="cls-9" x1="1825.04" y1="706.39" x2="1825.04" y2="685.39"/><line class="cls-9" x1="1782.04" y1="685.39" x2="1826.04" y2="685.39"/><line class="cls-9" x1="1782.04" y1="662.39" x2="1782.04" y2="685.39"/><line class="cls-9" x1="1847.04" y1="662.39" x2="1781.04" y2="662.39"/><line class="cls-9" x1="1526.04" y1="662.39" x2="1593.04" y2="662.39"/><line class="cls-9" x1="1593.04" y1="687.39" x2="1593.04" y2="661.39"/><line class="cls-9" x1="1550.04" y1="686.39" x2="1594.04" y2="686.39"/><line class="cls-9" x1="1550.04" y1="707.39" x2="1550.04" y2="685.39"/><line class="cls-9" x1="1467.04" y1="661.39" x2="1530.04" y2="661.39"/><line class="cls-9" x1="1907.04" y1="661.39" x2="1850.04" y2="662.39"/><line class="cls-9" x1="1401.04" y1="541.39" x2="1401.04" y2="601.39"/><line class="cls-9" x1="1467.04" y1="600.39" x2="1401.04" y2="600.39"/><line class="cls-9" x1="1059.04" y1="687.39" x2="1120.04" y2="654.39"/><line class="cls-9" x1="1081.04" y1="569.39" x2="1120.04" y2="654.39"/><line class="cls-9" x1="1193.04" y1="605.39" x2="1110.04" y2="632.39"/><line class="cls-9" x1="950.04" y1="1095.39" x2="949.04" y2="1213.39"/><line class="cls-9" x1="882.04" y1="1120.39" x2="882.04" y2="1072.39"/><line class="cls-9" x1="837.04" y1="1135.39" x2="883.04" y2="1135.39"/><line class="cls-9" x1="882.04" y1="1215.39" x2="882.04" y2="1160.39"/><line class="cls-15" x1="472.04" y1="1070.39" x2="472.04" y2="996.39"/><line class="cls-15" x1="667.54" y1="997.89" x2="469.54" y2="995.89"/><line class="cls-15" x1="667.54" y1="1069.89" x2="666.54" y2="994.89"/><line class="cls-9" x1="209.04" y1="1160.39" x2="132.04" y2="1149.39"/><line class="cls-9" x1="171.04" y1="976.39" x2="124.04" y2="978.39"/><rect class="cls-8" x="1012" y="2130" width="11" height="57" transform="translate(-962.14 -1667.17) rotate(-2.5)"/><rect class="cls-8" x="1020.63" y="2350.88" width="11" height="28.11" transform="translate(-971.14 -1666.6) rotate(-2.5)"/><line class="cls-15" x1="347.54" y1="865.89" x2="260.04" y2="865.39"/><line class="cls-15" x1="317.04" y1="474.39" x2="345.04" y2="865.39"/><line class="cls-15" x1="249.04" y1="479.39" x2="319.54" y2="474.89"/><line class="cls-9" x1="332.04" y1="670.39" x2="256.04" y2="673.39"/></svg>