<svg id="Слой_1" data-name="Слой 1" xmlns="http://www.w3.org/2000/svg" viewBox="0 0 3379.72 1170.77"><defs><style>.cls-1{fill:#666;}.cls-2{fill:none;}</style></defs><rect class="cls-1" x="1850.75" y="589.39" width="270.98" height="7.96"/><rect class="cls-1" x="1467.13" y="405.03" width="7.23" height="78.07"/><rect class="cls-1" x="2012.75" y="525.48" width="154.56" height="7.23"/><rect class="cls-1" x="1467.59" y="398.14" width="704.31" height="7.12"/><rect class="cls-1" x="2165.14" y="405.26" width="7.23" height="126.61"/><rect class="cls-1" x="2404.62" y="956.93" width="7.23" height="207.28"/><path class="cls-1" d="M3234.46,2687.83h-7.78c-.85-179-142.4-359.29-282.7-359.76v-8.14C3088.33,2320.55,3233.89,2504.94,3234.46,2687.83Z" transform="translate(-822.25 -1730.9)"/><rect class="cls-1" x="2472.63" y="933.02" width="7.23" height="95.96"/><rect class="cls-1" x="2467.92" y="926.9" width="631.61" height="7.23"/><rect class="cls-1" x="2404.62" y="1163.49" width="904.37" height="7.23"/><line class="cls-2" x1="2147.78" y1="526.09" x2="2147.78" y2="532.6"/><path class="cls-1" d="M3298.85,2658.16h-8.32c0-3.57-.08-7.14-.19-10.71h8.27Q3298.8,2652.81,3298.85,2658.16Z" transform="translate(-822.25 -1730.9)"/><path class="cls-1" d="M3297.62,2630.55h-8.22a393.43,393.43,0,0,0-5.45-41.22h8.15A399,399,0,0,1,3297.62,2630.55Z" transform="translate(-822.25 -1730.9)"/><path class="cls-1" d="M3288.34,2571.33h-8.13a437.44,437.44,0,0,0-15-50.44h8.15A442.55,442.55,0,0,1,3288.34,2571.33Z" transform="translate(-822.25 -1730.9)"/><path class="cls-1" d="M3266.8,2503.67h-8.19a466.48,466.48,0,0,0-25.49-52.61c1.78-1.78,3.57-3.56,5.35-5.35A474.4,474.4,0,0,1,3266.8,2503.67Z" transform="translate(-822.25 -1730.9)"/><path class="cls-1" d="M3227.72,2428l-5.22,5.22A456.86,456.86,0,0,0,3195,2393.8a32.48,32.48,0,0,0,5.16-4.77A467.74,467.74,0,0,1,3227.72,2428Z" transform="translate(-822.25 -1730.9)"/><path class="cls-1" d="M3188,2374.25l-.61.55-.19.17-.32.2a18.22,18.22,0,0,0-4.22,3.51,414.48,414.48,0,0,0-33.63-35.06l4.79-4.79A425.16,425.16,0,0,1,3188,2374.25Z" transform="translate(-822.25 -1730.9)"/><path class="cls-1" d="M3082.94,2295.17l4.83-4.83a344.91,344.91,0,0,1,52.38,36.5c-1.43,1.75-2.64,3.62-4.18,5.25A336.67,336.67,0,0,0,3082.94,2295.17Z" transform="translate(-822.25 -1730.9)"/><path class="cls-1" d="M3069.89,2281,3065,2286c-30.83-14.42-62.91-22.45-94.93-22.45V2257C3003.73,2257,3037.5,2265.6,3069.89,2281Z" transform="translate(-822.25 -1730.9)"/><path class="cls-1" d="M3429.09,2657.44h-6.51c0-255.75-215.55-514.11-429-514.4v-6.88h.18C3210.3,2136.16,3429.09,2398.13,3429.09,2657.44Z" transform="translate(-822.25 -1730.9)"/><rect class="cls-1" x="2715.54" y="933.05" width="7.23" height="231.16"/><rect class="cls-1" x="2410.99" y="1050.06" width="65.26" height="1.81"/><rect class="cls-1" x="2601.95" y="1071.06" width="1.81" height="92.97"/><rect class="cls-1" x="2541.36" y="934.14" width="7.23" height="94.78"/><rect class="cls-1" x="2479.5" y="1021.68" width="62.22" height="7.23"/><polygon class="cls-1" points="1966.16 590.6 1964.35 590.5 1967.34 531.6 1969.15 531.7 1966.16 590.6"/><rect class="cls-1" x="3150.71" y="2193.88" width="1.68" height="127.91" transform="translate(1106.77 -3152.13) rotate(36)"/><rect class="cls-1" x="3210.05" y="2247.94" width="1.81" height="126.61" transform="translate(1684.47 -3312.74) rotate(44)"/><rect class="cls-1" x="3258.34" y="2308.72" width="7.23" height="126.61" transform="translate(2300.64 -3389.7) rotate(52)"/><rect class="cls-1" x="3305.55" y="2381.79" width="1.81" height="126.61" transform="translate(3161.71 -3341.93) rotate(63)"/><rect class="cls-1" x="3276.79" y="2524.5" width="126.61" height="1.81" transform="translate(-1576.6 -82.68) rotate(-25)"/><rect class="cls-1" x="3292.71" y="2596.49" width="126.61" height="1.81" transform="translate(-1256.2 -1042.82) rotate(-11)"/><rect class="cls-1" x="2833.11" y="1070.16" width="1.81" height="97.67"/><rect class="cls-1" x="3008.2" y="1069.79" width="1.81" height="97.67"/><rect class="cls-1" x="3064.99" y="1070.16" width="1.81" height="97.67"/><rect class="cls-1" x="3940.1" y="2657.76" width="1.81" height="100.47" transform="translate(-958.58 -1520.93) rotate(-3)"/><polygon class="cls-1" points="3220.85 920.93 3098.25 927.04 3098.65 934.26 3221.25 928.16 3220.85 920.93"/><rect class="cls-1" x="3921.07" y="2562.3" width="7.23" height="95.5" transform="translate(-994.76 -1450.77) rotate(-4)"/><rect class="cls-1" x="4160.9" y="1730.1" width="7.23" height="1097.18" transform="translate(-953.59 -1472.42) rotate(-3.5)"/><rect class="cls-1" x="2776.68" y="931.89" width="1.81" height="94.42"/><rect class="cls-1" x="2834.85" y="931.35" width="1.81" height="95.5"/><rect class="cls-1" x="2890.81" y="933.25" width="1.81" height="93.69"/><rect class="cls-1" x="4160.18" y="2809.02" width="7.23" height="104.18" transform="translate(2247.62 -3801.98) rotate(43)"/><rect class="cls-1" x="3122.87" y="1070.16" width="1.81" height="94.05"/><rect class="cls-1" x="3172.97" y="1069.97" width="7.23" height="94.05"/><rect class="cls-1" x="4096.88" y="2703.75" width="90.44" height="1.81" transform="translate(-958.12 -1510.42) rotate(-3)"/><rect class="cls-1" x="3917.81" y="1812.76" width="7.23" height="748.82" transform="translate(-948.46 -1487.42) rotate(-3.5)"/><polygon class="cls-1" points="3074.36 88.79 3067.14 89.23 3062.58 15.51 3069.8 15.07 3074.36 88.79"/><rect class="cls-1" x="3891.04" y="1738.6" width="238.75" height="7.23" transform="translate(-921.13 -1482.82) rotate(-3.5)"/><rect class="cls-1" x="3905.69" y="1872.63" width="92.97" height="1.81" transform="translate(-929.25 -1486.13) rotate(-3.5)"/><rect class="cls-1" x="4043.34" y="1865.03" width="94.05" height="1.81" transform="translate(-928.54 -1477.71) rotate(-3.5)"/><rect class="cls-1" x="4046.95" y="1917.85" width="94.05" height="1.81" transform="translate(-931.75 -1477.39) rotate(-3.5)"/><rect class="cls-1" x="4050.81" y="1976.45" width="94.05" height="1.81" transform="translate(-935.32 -1477.04) rotate(-3.5)"/><rect class="cls-1" x="4052.74" y="2032.88" width="94.05" height="1.81" transform="translate(-938.76 -1476.82) rotate(-3.5)"/><rect class="cls-1" x="4056" y="2085.7" width="94.05" height="1.81" transform="translate(-925.83 -1513.3) rotate(-3)"/><rect class="cls-1" x="4060.7" y="2145.87" width="94.05" height="1.81" transform="translate(-945.65 -1476.12) rotate(-3.5)"/><rect class="cls-1" x="4064.32" y="2204.35" width="94.05" height="1.81" transform="translate(-949.21 -1475.79) rotate(-3.5)"/><rect class="cls-1" x="3916" y="2043.01" width="94.05" height="1.81" transform="translate(-939.64 -1485.15) rotate(-3.5)"/><rect class="cls-1" x="3926.85" y="2214.48" width="94.05" height="1.81" transform="translate(-950.09 -1484.17) rotate(-3.5)"/><rect class="cls-1" x="3940.52" y="2441.14" width="94.05" height="1.81" transform="translate(-963.9 -1482.91) rotate(-3.5)"/><rect class="cls-1" x="3944.22" y="2502.43" width="94.05" height="1.81" transform="translate(-967.63 -1482.57) rotate(-3.5)"/><rect class="cls-1" x="4074.09" y="2368.22" width="94.05" height="1.81" transform="translate(-959.2 -1474.89) rotate(-3.5)"/><rect class="cls-1" x="4078.43" y="2434.63" width="94.05" height="1.81" transform="translate(-963.24 -1474.5) rotate(-3.5)"/><rect class="cls-1" x="4082.04" y="2492.3" width="94.05" height="1.81" transform="translate(-966.76 -1474.17) rotate(-3.5)"/><rect class="cls-1" x="3933" y="2325" width="94.05" height="7.23" transform="translate(-974.99 -1447.6) rotate(-4)"/><rect class="cls-1" x="4070.83" y="2316.31" width="94.05" height="7.23" transform="translate(-974.05 -1438) rotate(-4)"/><rect class="cls-1" x="1909.13" y="404.1" width="7.24" height="78"/><rect class="cls-1" x="1526.75" y="597.38" width="331.45" height="7.23"/><rect class="cls-1" x="1909.13" y="517.6" width="7.24" height="72"/><rect class="cls-1" x="1553.68" y="519.19" width="74.07" height="1.81"/><rect class="cls-1" x="1467.25" y="519.19" width="32.06" height="1.81"/><rect class="cls-1" x="1512.86" y="519.19" width="30.81" height="1.81"/><rect class="cls-1" x="1641.19" y="519.19" width="83.22" height="1.81"/><rect class="cls-1" x="1740.64" y="519.19" width="18" height="1.81"/><rect class="cls-1" x="1771.75" y="519.19" width="101.11" height="1.81"/><rect class="cls-1" x="1891.16" y="519.19" width="19.09" height="1.81"/><rect class="cls-1" x="1526.13" y="520.06" width="7.23" height="78.07"/><rect class="cls-1" x="1467.13" y="519.85" width="7.23" height="76.5"/><rect class="cls-1" x="1243.68" y="589.1" width="283.07" height="7.96"/><rect class="cls-1" x="2020.35" y="2256.38" width="211.65" height="7.23" transform="translate(3430.1 2789.1) rotate(-180)"/><rect class="cls-1" x="2015.75" y="2128.75" width="704.31" height="7.12" transform="translate(3913.56 2533.72) rotate(-180)"/><rect class="cls-1" x="2015.28" y="2135.88" width="7.23" height="126.61" transform="translate(3215.55 2667.46) rotate(-180)"/><rect class="cls-1" x="1775.8" y="2687.54" width="7.23" height="207.28" transform="translate(2736.59 3851.47) rotate(-180)"/><path class="cls-1" d="M1775.44,2687.54h7.79c.85-179,142.39-359.29,282.69-359.75v-8.14C1921.58,2320.26,1776,2504.65,1775.44,2687.54Z" transform="translate(-822.25 -1730.9)"/><rect class="cls-1" x="1705.38" y="2800.5" width="7.23" height="100" transform="translate(2595.75 3970.1) rotate(-180)"/><rect class="cls-1" x="1096.5" y="2657.52" width="623" height="7.23" transform="translate(1993.75 3591.37) rotate(-180)"/><rect class="cls-1" x="936" y="2894.1" width="847.04" height="7.23" transform="translate(1896.79 4064.54) rotate(-180)"/><line class="cls-2" x1="1217.63" y1="525.8" x2="1217.63" y2="532.31"/><path class="cls-1" d="M1711.06,2657.88h8.31c.69-196.54,161.41-394.66,320.51-394.66v-6.52C1877,2256.7,1712.54,2457.85,1711.06,2657.88Z" transform="translate(-822.25 -1730.9)"/><path class="cls-1" d="M1580.82,2657.16h6.51c0-255.76,215.55-514.12,429-514.41v-6.87h-.19C1799.61,2135.88,1580.82,2397.84,1580.82,2657.16Z" transform="translate(-822.25 -1730.9)"/><rect class="cls-1" x="1530.38" y="2801.09" width="7.23" height="95.83" transform="translate(2245.75 3967.1) rotate(-180)"/><rect class="cls-1" x="141.75" y="1069.69" width="24.44" height="1.81"/><rect class="cls-1" x="188.64" y="1069.69" width="55.33" height="1.81"/><path class="cls-1" d="M1087.53,2800.59a4.81,4.81,0,0,1,.24,1.81h121.56v-1.81Z" transform="translate(-822.25 -1730.9)"/><rect class="cls-1" x="407.75" y="1069.69" width="96.22" height="1.81"/><rect class="cls-1" x="520.64" y="1069.69" width="95.78" height="1.81"/><rect class="cls-1" x="636.64" y="1069.69" width="197.11" height="1.81"/><rect class="cls-1" x="854.42" y="1069.69" width="33.33" height="1.81"/><rect class="cls-1" x="1639.06" y="2664.75" width="7.23" height="94.78" transform="translate(2463.11 3693.38) rotate(-180)"/><rect class="cls-1" x="1645.94" y="2752.3" width="62.22" height="7.23" transform="translate(2531.84 3780.93) rotate(-180)"/><rect class="cls-1" x="1849.16" y="2201.05" width="1.68" height="127.91" transform="translate(3743.89 1618.21) rotate(151)"/><rect class="cls-1" x="1794.1" y="2247.69" width="1.81" height="126.61" transform="translate(3810.02 1296.08) rotate(142)"/><rect class="cls-1" x="1745.38" y="2305.69" width="7.23" height="126.61" transform="translate(3862.1 872.31) rotate(131)"/><rect class="cls-1" x="1703.1" y="2377.69" width="1.81" height="126.61" transform="translate(3842.81 403.16) rotate(119)"/><rect class="cls-1" x="212.75" y="1027" width="116.56" height="1.81"/><rect class="cls-1" x="339.31" y="1027" width="11.33" height="1.81"/><rect class="cls-1" x="361.97" y="1027" width="93.7" height="1.81"/><rect class="cls-1" x="475.75" y="1027" width="86" height="1.81"/><rect class="cls-1" x="580.34" y="1027" width="90.44" height="1.81"/><rect class="cls-1" x="688.19" y="1027" width="130.43" height="1.81"/><rect class="cls-1" x="1598.69" y="2548.1" width="126.61" height="1.81" transform="translate(1835.71 3693.46) rotate(-166)"/><rect class="cls-1" x="1617.07" y="2605.24" width="105.86" height="1.51" transform="translate(-1987.42 2116.84) rotate(-81)"/><polygon class="cls-1" points="177.18 885.97 276.01 882.18 276.32 889.17 177.49 892.96 177.18 885.97"/><rect class="cls-1" x="844.81" y="1808.6" width="7.23" height="1023.31" transform="translate(975 2870.38) rotate(177.5)"/><rect class="cls-1" x="1359.17" y="2664.21" width="1.81" height="94.42" transform="translate(1897.9 3691.93) rotate(-180)"/><rect class="cls-1" x="1083.73" y="1975.87" width="7.24" height="782.41" transform="translate(1455.64 2953.05) rotate(177.48)"/><polygon class="cls-1" points="10.35 181.11 275.76 168.41 276.04 175.65 10.62 188.35 10.35 181.11"/><polygon class="cls-1" points="275.72 241.97 282.95 241.64 275.45 68.72 268.22 69.05 275.72 241.97"/><rect class="cls-1" x="822.28" y="1801.66" width="275.45" height="7.23" transform="translate(1175.65 1836.01) rotate(177.5)"/><rect class="cls-1" x="973.51" y="1974.95" width="97.65" height="1.9" transform="matrix(-1, 0.04, -0.04, -1, 1307.64, 2174.42)"/><rect class="cls-1" x="834.97" y="1982.1" width="94.05" height="1.81" transform="translate(1027.41 2194.74) rotate(177.5)"/><rect class="cls-1" x="837.34" y="2047.8" width="94.05" height="1.81" transform="translate(1035.01 2325.97) rotate(177.5)"/><rect class="cls-1" x="841.32" y="2104.12" width="94.05" height="1.81" transform="translate(1045.42 2438.4) rotate(177.5)"/><rect class="cls-1" x="843.6" y="2156.99" width="94.05" height="1.81" transform="translate(1070.73 2535.31) rotate(177)"/><rect class="cls-1" x="845.97" y="2207.1" width="94.05" height="1.81" transform="translate(1059.21 2644.05) rotate(177.5)"/><rect class="cls-1" x="847.73" y="2275.86" width="94.05" height="1.81" transform="matrix(-1, 0.04, -0.04, -1, 1065.73, 2781.43)"/><rect class="cls-1" x="979.97" y="2143.9" width="94.05" height="1.81" transform="translate(1324.33 2511.87) rotate(177.5)"/><rect class="cls-1" x="985.5" y="2271.57" width="94.05" height="1.81" transform="translate(1340.95 2766.84) rotate(177.5)"/><polygon class="cls-1" points="171.83 720.05 267.75 715.95 267.67 714.14 171.75 718.25 171.83 720.05"/><rect class="cls-1" x="998.97" y="2564.1" width="94.05" height="1.81" transform="matrix(-1, 0.04, -0.04, -1, 1380.64, 3351.03)"/><rect class="cls-1" x="855.15" y="2439.86" width="94.05" height="1.81" transform="matrix(-1, 0.04, -0.04, -1, 1087.7, 3108.95)"/><rect class="cls-1" x="859.97" y="2569.1" width="94.05" height="1.81" transform="translate(1102.99 3367.09) rotate(177.5)"/><rect class="cls-1" x="991.22" y="2382.1" width="94.05" height="7.23" transform="translate(1336.88 3002.85) rotate(178)"/><rect class="cls-1" x="853.24" y="2387.87" width="94.05" height="7.23" transform="matrix(-1, 0.03, -0.03, -1, 1061.2, 3019.21)"/><rect class="cls-1" x="1927.16" y="2155.05" width="1.68" height="127.91" transform="translate(3625.1 2002.71) rotate(162)"/><rect class="cls-1" x="1530.38" y="2663" width="7.23" height="96" transform="translate(2245.75 3691.1) rotate(-180)"/><polygon class="cls-1" points="37.18 891.91 136.01 888.11 136.32 895.1 37.49 898.9 37.18 891.91"/><polygon class="cls-1" points="49.74 1095.78 118.7 1165.47 113.75 1170.42 44.8 1100.73 49.74 1095.78"/><polygon class="cls-1" points="283.14 247.67 282.83 240.44 244.36 242.07 244.67 249.3 283.14 247.67"/><rect class="cls-1" x="851.42" y="2335.98" width="94.05" height="1.81" transform="matrix(-1, 0.04, -0.04, -1, 1075.71, 2901.46)"/><rect class="cls-1" x="1363.1" y="2802" width="1.81" height="94" transform="translate(1905.75 3967.1) rotate(-180)"/><rect class="cls-1" x="1307.1" y="2801" width="1.81" height="96" transform="translate(1793.75 3967.1) rotate(-180)"/><rect class="cls-1" x="1193.1" y="2802" width="1.81" height="94" transform="translate(1565.75 3967.1) rotate(-180)"/><rect class="cls-1" x="1039.1" y="2802" width="1.81" height="94" transform="translate(1257.75 3967.1) rotate(-180)"/><rect class="cls-1" x="1196.1" y="2663" width="1.81" height="96" transform="translate(1571.75 3691.1) rotate(-180)"/><rect class="cls-1" x="1148.1" y="2663.89" width="1.81" height="94" transform="translate(1475.75 3690.88) rotate(-180)"/><rect class="cls-1" x="1475.54" y="2663.89" width="1.81" height="94" transform="translate(2130.64 3690.88) rotate(-180)"/><rect class="cls-1" x="964.1" y="2800" width="1.81" height="94" transform="translate(1107.75 3963.1) rotate(-180)"/><rect class="cls-1" x="1705.38" y="2659.5" width="7.23" height="100" transform="translate(2595.75 3688.1) rotate(-180)"/><rect class="cls-1" x="2263.16" y="2256.38" width="31.68" height="7.23" transform="translate(3735.75 2789.1) rotate(-180)"/><rect class="cls-1" x="1915.15" y="524.48" width="61.6" height="7.23"/><rect class="cls-1" x="2414.1" y="2251.28" width="1.81" height="81.44" transform="translate(4007.75 2853.1) rotate(-180)"/><rect class="cls-1" x="2384.8" y="2250.31" width="1.81" height="81.44" transform="translate(3949.16 2851.17) rotate(-180)"/><rect class="cls-1" x="2568.1" y="2250.31" width="1.81" height="81.44" transform="translate(4315.75 2851.17) rotate(-180)"/><rect class="cls-1" x="2611.1" y="2250.28" width="1.81" height="81.44" transform="translate(4401.75 2851.1) rotate(-180)"/><rect class="cls-1" x="2673.1" y="2131.28" width="1.81" height="81.44" transform="translate(4525.75 2613.1) rotate(-180)"/><rect class="cls-1" x="2610.32" y="2131.28" width="1.81" height="81.44" transform="translate(4400.19 2613.1) rotate(-180)"/><rect class="cls-1" x="1747.13" y="402.9" width="7.24" height="80"/><rect class="cls-1" x="1632.13" y="402.1" width="7.24" height="80"/><rect class="cls-1" x="1591.13" y="402.1" width="7.24" height="80"/><rect class="cls-1" x="1510.42" y="481.19" width="58.89" height="1.81"/><rect class="cls-1" x="1583.08" y="481.19" width="25.33" height="1.81"/><rect class="cls-1" x="1467.18" y="481.19" width="30.13" height="1.81"/><rect class="cls-1" x="1618.42" y="481.19" width="20.91" height="1.81"/><rect class="cls-1" x="2352.1" y="2131.28" width="1.81" height="81.44" transform="translate(3883.75 2613.1) rotate(-180)"/><path class="cls-1" d="M2588.74,2213a5.28,5.28,0,0,1,.09-.9H2570.6v1.8h18.14Z" transform="translate(-822.25 -1730.9)"/><path class="cls-1" d="M2647.41,2213.9v-1.8h-48.76a4.5,4.5,0,0,1,.09.9v.9Z" transform="translate(-822.25 -1730.9)"/><rect class="cls-1" x="1840.79" y="481.19" width="31.19" height="1.81"/><rect class="cls-1" x="1889.38" y="481.19" width="26.97" height="1.81"/><rect class="cls-1" x="2473.43" y="1050.1" width="7.23" height="117"/><polygon class="cls-1" points="3362.64 913.28 3265.23 918.07 3265.62 925.29 3363.03 920.51 3362.64 913.28"/><polygon class="cls-1" points="3258.7 824.55 3258.73 825.1 3258.93 828.38 3362.17 821.87 3361.76 814.88 3258.5 821.4 3258.7 824.55"/><polygon class="cls-1" points="3222.56 823.67 3098.09 831.53 3098.51 838.51 3222.99 830.65 3222.56 823.67"/><line class="cls-1" x1="3258.73" y1="825.1" x2="3258.69" y2="824.55"/><polygon class="cls-1" points="3213.8 82.23 3311.14 76.75 3310.66 69.52 3213.36 75.01 3213.8 82.23"/><polygon class="cls-1" points="3177.49 77.03 3078.22 82.63 3078.7 89.85 3177.93 84.25 3177.49 77.03"/><polygon class="cls-1" points="3215.14 50.68 3212.9 13.31 3211.09 13.42 3213.34 50.79 3215.14 50.68"/><polygon class="cls-1" points="3214.34 67.39 3214.8 75.17 3216.61 75.05 3216.14 67.28 3214.34 67.39"/><rect class="cls-1" x="3996.23" y="1815.24" width="1.81" height="22.16" transform="translate(-926.29 -1483.48) rotate(-3.5)"/><rect class="cls-1" x="4039.63" y="1812.91" width="1.81" height="21.83" transform="translate(-926.07 -1480.79) rotate(-3.5)"/><rect class="cls-1" x="4042.46" y="1851.28" width="1.81" height="37.46" transform="translate(-928.87 -1480.57) rotate(-3.5)"/><rect class="cls-1" x="4002.6" y="1853.83" width="1.81" height="153.27" transform="translate(-932.64 -1482.89) rotate(-3.5)"/><rect class="cls-1" x="4047.54" y="1905.21" width="1.81" height="95.65" transform="translate(-933.93 -1480.11) rotate(-3.5)"/><rect class="cls-1" x="4009.58" y="2023.51" width="1.81" height="42.15" transform="translate(-939.59 -1482.25) rotate(-3.5)"/><rect class="cls-1" x="4054.39" y="2017.28" width="1.81" height="95.47" transform="translate(-940.75 -1479.49) rotate(-3.5)"/><rect class="cls-1" x="4016.37" y="2082.08" width="1.81" height="146.74" transform="translate(-946.34 -1481.63) rotate(-3.5)"/><rect class="cls-1" x="4062.86" y="2129.12" width="1.81" height="149.01" transform="translate(-949.2 -1478.71) rotate(-3.5)"/><rect class="cls-1" x="4024.99" y="2245.19" width="1.81" height="102.58" transform="translate(-954.94 -1480.84) rotate(-3.5)"/><rect class="cls-1" x="4071.74" y="2294.48" width="1.81" height="108.47" transform="translate(-958.04 -1477.89) rotate(-3.5)"/><rect class="cls-1" x="4032.54" y="2364.16" width="1.81" height="111.57" transform="translate(-962.46 -1480.15) rotate(-3.5)"/><rect class="cls-1" x="4077.36" y="2419.4" width="1.81" height="42.33" transform="translate(-963.64 -1477.38) rotate(-3.5)"/><rect class="cls-1" x="4039.74" y="2519.76" width="1.81" height="35.73" transform="translate(-969.87 -1479.06) rotate(-3.51)"/><rect class="cls-1" x="4037.3" y="2492.21" width="1.81" height="11" transform="translate(-967.2 -1479.71) rotate(-3.5)"/><rect class="cls-1" x="4080.57" y="2478.27" width="1.81" height="29.53" transform="translate(-966.82 -1477.1) rotate(-3.5)"/><rect class="cls-1" x="4083.36" y="2524.34" width="1.81" height="28.82" transform="translate(-969.62 -1476.82) rotate(-3.5)"/><rect class="cls-1" x="4036.82" y="2561.81" width="1.81" height="36.97" transform="matrix(1, -0.06, 0.06, 1, -972.24, -1479.6)"/><rect class="cls-1" x="4040.09" y="2615.3" width="1.81" height="36.84" transform="translate(-975.5 -1479.3) rotate(-3.5)"/><rect class="cls-1" x="4091.46" y="2612.28" width="1.81" height="36.61" transform="translate(-975.21 -1476.16) rotate(-3.5)"/><rect class="cls-1" x="4088.2" y="2558.55" width="1.81" height="37.2" transform="translate(-971.96 -1476.45) rotate(-3.5)"/><polygon class="cls-1" points="3273.54 937.6 3272.87 924.76 3265.64 925.14 3266.32 938.04 3273.54 937.6"/><polygon class="cls-1" points="3267.19 954.64 3268.43 978.24 3275.65 977.87 3274.41 954.2 3267.19 954.64"/><rect class="cls-1" x="3999.66" y="2796.99" width="12.66" height="1.81" transform="translate(-1611.69 2005.1) rotate(-46)"/><rect class="cls-1" x="4078.81" y="2713.33" width="15.93" height="1.81" transform="translate(-1526.85 2037.65) rotate(-46)"/><rect class="cls-1" x="4012.45" y="2755.75" width="66.72" height="1.81" transform="translate(-1569.87 2021.12) rotate(-46)"/><rect class="cls-1" x="2940.75" y="1025.19" width="181.08" height="1.81"/><rect class="cls-1" x="2874.25" y="1025.19" width="46.5" height="1.81"/><rect class="cls-1" x="2816.25" y="1025.19" width="41" height="1.81"/><rect class="cls-1" x="2721.67" y="1025.19" width="20.58" height="1.81"/><rect class="cls-1" x="2759.25" y="1025.19" width="40" height="1.81"/><rect class="cls-1" x="2722.6" y="1069.52" width="77.65" height="1.81"/><rect class="cls-1" x="2817.25" y="1069.52" width="163" height="1.81"/><rect class="cls-1" x="2997.25" y="1069.52" width="48" height="1.81"/><rect class="cls-1" x="3038.58" y="1083.36" width="6.67" height="1.81"/><rect class="cls-1" x="3058.25" y="1083.36" width="6.74" height="1.81"/><rect class="cls-1" x="3037.14" y="1070.43" width="1.81" height="15.32"/><rect class="cls-1" x="3037.14" y="1094.66" width="1.81" height="7.77"/><rect class="cls-1" x="3008.38" y="1101.45" width="39.37" height="1.81"/><rect class="cls-1" x="3057.75" y="1101.45" width="8.51" height="1.81"/><rect class="cls-1" x="3058.25" y="1069.52" width="28.5" height="1.81"/><rect class="cls-1" x="3161.75" y="1069.52" width="18.82" height="1.81"/><rect class="cls-1" x="3102.75" y="1069.52" width="43" height="1.81"/><rect class="cls-1" x="2479.86" y="1069.97" width="34.39" height="1.81"/><rect class="cls-1" x="2533.25" y="1069.97" width="151.5" height="1.81"/><rect class="cls-1" x="2698.75" y="1069.97" width="16.97" height="1.81"/><rect class="cls-1" x="2546.79" y="1027.29" width="141.96" height="1.81"/><rect class="cls-1" x="2706.75" y="1027.29" width="10.06" height="1.81"/><polygon class="cls-1" points="3169.27 53.24 3167.02 15.28 3165.21 15.39 3167.46 53.35 3169.27 53.24"/><polygon class="cls-1" points="3168.46 70.2 3168.93 78.1 3170.73 77.98 3170.26 70.09 3168.46 70.2"/><rect class="cls-1" x="1029.46" y="2618.43" width="2.14" height="85.01" transform="translate(-960.1 -1673.32) rotate(-3)"/><rect class="cls-1" x="1034.13" y="2740.53" width="2.14" height="19" transform="translate(-964.76 -1672.95) rotate(-3)"/><polygon class="cls-1" points="176.78 871.74 177.44 886.91 179.25 886.84 178.58 871.64 176.78 871.74"/><polygon class="cls-1" points="174.29 814.76 175.94 852.5 177.75 852.4 176.1 814.67 174.29 814.76"/><polygon class="cls-1" points="169.22 698.65 173.45 795.52 175.26 795.43 171.03 698.55 169.22 698.65"/><polygon class="cls-1" points="163.3 521.66 161.5 521.75 168.38 679.41 170.19 679.31 163.3 521.66"/><polygon class="cls-1" points="155.49 342.65 153.68 342.74 160.66 502.51 162.46 502.42 155.49 342.65"/><polygon class="cls-1" points="149.43 203.95 148.26 177.16 146.46 177.24 147.63 204.05 149.43 203.95"/><polygon class="cls-1" points="150.27 223.19 148.47 223.29 152.84 323.5 154.65 323.41 150.27 223.19"/><polygon class="cls-1" points="106.12 208.44 104.75 177.1 102.94 177.18 104.31 208.53 106.12 208.44"/><polygon class="cls-1" points="108.78 269.4 106.96 227.68 105.15 227.77 106.97 269.5 108.78 269.4"/><polygon class="cls-1" points="111.43 330.06 109.62 288.64 107.81 288.74 109.62 330.15 111.43 330.06"/><polygon class="cls-1" points="116.48 445.83 112.27 349.3 110.46 349.39 114.68 445.92 116.48 445.83"/><polygon class="cls-1" points="118.83 499.48 117.32 465.07 115.52 465.16 117.02 499.57 118.83 499.48"/><polygon class="cls-1" points="121.64 564 119.67 518.72 117.86 518.81 119.84 564.09 121.64 564"/><polygon class="cls-1" points="124.46 628.52 122.48 583.23 120.68 583.33 122.65 628.62 124.46 628.52"/><polygon class="cls-1" points="129.42 742.06 125.3 647.76 123.49 647.86 127.61 742.15 129.42 742.06"/><polygon class="cls-1" points="136.77 910.46 130.26 761.3 128.45 761.39 134.96 910.55 136.77 910.46"/><polygon class="cls-1" points="141.92 1028.5 137.61 929.69 135.8 929.79 140.12 1028.6 141.92 1028.5"/><polygon class="cls-1" points="140.96 1047.83 141.93 1070.04 143.73 1069.96 142.76 1047.74 140.96 1047.83"/></svg>